# xmcd
#
# Track frame offsets:
#	150
#	15745
#	32122
#	47492
#	63619
#	69027
#	82384
#	98851
#	115506
#	134259
#	139208
#	154082
#	169939
#	185490
#	203291
#
# Disc length: 2808 seconds
# Revision: 0
# Processed by: cddbd v1.5.2PL0 Copyright (c) Steve Scherf et al.
# Submitted via: dBpowerAMP V12.0
#
DISCID=c80af60f
DTITLE=Tamara Stewart - The Truth, The Music and Me
DYEAR=2012
DGENRE=Country
TTITLE0=Birds In Cages
TTITLE1=Broke My Heart
TTITLE2=Piece Of My Mind
TTITLE3=Untied
TTITLE4=His Eye Is On The Sparrow
TTITLE5=Blessed
TTITLE6=Dear Hometown
TTITLE7=Haunted House
TTITLE8=The Truth, The Music and me
TTITLE9=It's Time
TTITLE10=The Rising
TTITLE11=Love and Trouble
TTITLE12=Face The Music
TTITLE13=Late To The Party
TTITLE14=Pages
EXTD=
EXTT0=
EXTT1=
EXTT2=
EXTT3=
EXTT4=
EXTT5=
EXTT6=
EXTT7=
EXTT8=
EXTT9=
EXTT10=
EXTT11=
EXTT12=
EXTT13=
EXTT14=
PLAYORDER=
